<svg version="1.2" baseProfile="tiny-ps" viewBox="0 0 17 17" xmlns="http://www.w3.org/2000/svg" xmlns:xlink="http://www.w3.org/1999/xlink">
    <title>BuyToFill</title>
    <path fill="#474BFF" d="m 14.3 5.5 c 0.3 0.3 1.2 0 1.8 0 c 0.6 -0.3 0 -3.3 0 -4.9 c -1.8 0 -4.8 -0.7 -5.1 0 c 0 0.6 -0.3 1.4 0 1.8 s 1.1 0 1.7 0 c -12.3 13 -12.3 11.4 -12.3 12.3 c 0.8 1.8 -0.3 0.7 1.5 1.5 c 0.8 0 -0.8 0 12.4 -12.4 c 0 0.7 -0.3 1.3 0 1.7 m -3.1 11.1 c 0.4 0.7 3.5 0 5.1 0 c 0 -1.6 0.7 -4.6 0 -4.9 c -0.6 0 -1.4 -0.3 -1.8 0 s 0 0.9 0 1.7 c -4.9 -4.4 -3.7 -4.4 -4.2 -4.4 s -1.5 1.1 -1.5 1.6 s 0 -0.8 4.3 4.3 c -0.6 0 -1.4 -0.3 -1.8 0 s 0 1 -0.1 1.7 m -10.3 -14.3 c 0 0.3 0 -0.4 5.3 5.2 c 0.5 -0.1 1.1 -0.8 1.3 -1.3 c -5.6 -5.2 -4.9 -5.2 -5.3 -5.2 c -1.5 0.8 -0.5 -0.2 -1.3 1.3"/>
</svg>