<svg viewBox="0 0 17 17">
    <path fill="#fff" d="m5 0Q0 0 0 5v7q0 5 5 5h7q5 0 5-5V5q0-5-5-5"/>
    <path fill="#111" d="M3.1 4c.6-1-.1-.3.9-.9.3 0-.2 0 3.9 3.8-.2.3-.6.8-1 .9C3.1 3.8 3.1 4.3 3.1 4m7.4 10.3c.1-.5-.2-1 .1-1.2s.9 0 1.3 0C8.8 9.4 8.8 10.3 8.8 10s.8-1.1 1.1-1.1-.5 0 3 3.1c0-.5-.3-1 0-1.2s.9 0 1.3 0c.5.2 0 2.4 0 3.5-1.2 0-3.4.5-3.7 0m2.3-8c-.3-.2 0-.7 0-1.2-9.6 9-8.4 9-9 9-1.3-.6-.5.2-1.1-1.1 0-.7 0 .5 8.9-8.9-.4 0-1 .3-1.2 0s0-.8 0-1.3c.2-.5 2.4 0 3.6 0 0 1.2.5 3.3 0 3.5-.4 0-1 .3-1.2 0"/>
</svg>