<svg xmlns="http://www.w3.org/2000/svg" viewBox="-24 -20 90 87">
    <path fill="#fb0" d="m9.8 24c0-1.5.3-3 .7-4.4l-7.9-6C1.1 16.7.2 20.3.2 24s.9 7.3 2.4 10.4l7.9-6.1c-.4-1.3-.7-2.8-.7-4.3"></path>
    <path fill="#e43" d="m23.7 10.1c3.3 0 6.3 1.2 8.7 3.1l6.8-6.8C35 2.8 29.7.5 23.7.5 14.4.5 6.4 5.8 2.6 13.6l7.9 6c1.9-5.5 7-9.5 13.2-9.5"></path>
    <path fill="#3a5" d="M23.7 37.9c3 0 5.7-.8 7.8-2.1L39 41.6c-4.1 3.8-9.6 5.9-15.3 5.9-9.3 0-17.3-5.3-21.1-13.1l7.9-6c1.9 5.5 7 9.5 13.2 9.5"></path>
    <path fill="#48f" d="m46.1 24c0-1.4-.2-2.9-.5-4.3H23.7v9.1H36.3c-.6 3.1-2.3 5.5-4.8 7l7.5 5.8c4.3-4 7.1-10 7.1-17.6"></path>
</svg>