<svg xmlns="http://www.w3.org/2000/svg" viewBox="-8 -7 46 45">
    <path fill="#fff" d="M30.4 17.5c-.4 0-.5-.2-.5-.5V14.9s0-.5.5-.5c.2 0 .5 0 .5.5v.3H32v-.5c0-.8-.8-1.1-1.6-1.1-.8 0-1.5.2-1.6 1.1 0 .1 0 .2 0 .3v1.9c0 .1 0 .2 0 .3.1.9.8 1.2 1.6 1.2.8 0 1.5-.3 1.6-1.2 0-.1 0-.2 0-.3V15.7H30.4v.7h.5V17c0 .4-.2.5-.5.5m-9.5.1c-.4 0-.5-.2-.5-.5V13.7H19.2V17c0 .1 0 1.4 1.6 1.4.9 0 1.6-.2 1.6-1.4V13.7H21.3v3.4s0 .5-.4.5M17 17c-.3-.6-2.1-1.1-2.1-2.4.2-.8.8-1 1.6-1 .7 0 1.6.1 1.6 1.1V15H16.9v-.3c0-.2-.1-.4-.4-.4s-.4.1-.4.6c.1.5 2.2 1 2 2.5-.1.8-.8 1-1.6 1s-1.7-.2-1.6-1.6h1.2v.4c0 .3.2.4.5.4.3 0 .5-.1.4-.6M2.1 17C1.9 16.4-0 16.3-0 14.6c0-.5.6-1.1 1.7-1 .6 0 1.5.1 1.5 1.1V15H2c0-.6-.1-.7-.4-.7s-.4.1-.4.6c.1.5 2.2 1 2.1 2.5-.1.8-.8 1-1.6 1-1 .1-1.8-.7-1.7-1.6H1.2v.4c0 .3.2.4.5.4s.5-.2.4-.6m11.7-3.3v4.6H12.6V14.2l-.8 4.1H10.6l-.8-4.1v4.1h-1V13.7h1.8l.6 3.5.6-3.5m-4.9 0 .9 4.6H6.5l-.6-4.2-.6 4.2H4l.9-4.6m22.7 0v4.5H25.9l-1.1-3.7v3.7H23.7V13.7h1.7l1.1 3.6-.1-3.6"/>
</svg>