<svg xmlns="http://www.w3.org/2000/svg" viewBox="-5 -5 32 33">
    <path fill="#8c2" d="M24 9.3c-1-.2-1.5-.2-1.7-.2-1.6 0-2.6.5-3.2 1.4.2-.9-.7-1.4-2.7-1.4-2.3 0-3.8.9-4.4 2.8-.2.8-.2 1.3-.1 1.8H10c-.8 0-1.4-.1-1.6-.4-.2-.3-.2-.7.1-1.4.5-1 1.2-1.7 2.6-1.7.8 0 1.7.3 1.6-.6-.1-.3-.2-.5-1.6-.5-1.8 0-3.1.6-3.8 1.8.2-1.2-.6-1.8-2.6-1.8-1.2 0-1.9 0-2.3.1-.4.1-.6.1-.7.4l-.2.6c0 .1.1.1.2.1.3 0 .6-.1 1-.1a24.8 24.8 0 011.6-.1c1.1 0 1.6.3 1.4.9 0 .1-.1.2-.2.2-1.1.1-1.6.1-2.5.3-1.7.3-2.7.8-2.9 1.6-.4 1.2.5 1.8 2.7 1.8 1.1 0 2-.1 2.8-.2.4-.1.6-.2.7-.5l.4-1.3c0 1.3.8 2 2.7 2 .8 0 1.1 0 1.9-.1.4-.1.6-.2.7-.4l.1-.4c.4.6 1.1 1.1 5 .9a.5.5 0 00.5-.5l.1-.6s0-.1-.1-.1l-2.4.1c-.6 0-1 0-1.3-.1-.4-.2-.5-.4-.5-.9l2.9-.3c1.2-.1 2.1-.6 2.5-1.2l-.9 3.3c-.1.2.1.2.2.2h1.2c.2 0 .3-.1.3-.2l1-3.6c.2-.5.6-.8 1.4-.8.7 0 1.2 0 1.6.1.5.1.7-.9.4-1M4.8 13.6c0 .2-.9.2-1.5.2-1.3 0-1.8-.2-1.6-.7.1-.4.3-.5.9-.6l2.8-.4m12.1-1.3c-.1.3-.6.6-1.6.8l-2.3.3c.3-.9.4-1.3.8-1.5.4-.2 1-.3 1.7-.3 1.1 0 1.6.2 1.4.7"/>
</svg>