<svg xmlns="http://www.w3.org/2000/svg" viewBox="-70 -10 650 110">
    <path fill="#26b" d="m372.6 39s91.1 5.3 101.1 6.3c17.1 1.7 25.1 18.7 25.8 24.3 0 0 .7 5.1-.2 11.3 0 0-3.6 23.8-28.6 25.3h-99.9l.3-27.9H468c2.3 0 4.6-1.3 4.6-1.3 1-.9 1.8-2.6 1.8-4.2 0-5.3-4.4-5.5-6.6-5.6 0 0-68.1-5.7-70.5-5.9 0 0-9.3-1.4-15.6-7.5-2.8-2.6-6.5-5.5-9.1-14.8m-93.5-6.1v36.8c0 8.5 8 9.2 8 9.2h47c9 0 9.1-9.3 9.1-9.3V37.3l27.4 1.7.2 38.8c0 26.2-27.2 28.4-27.2 28.4h-63.7c-.4-.1-2.6-.2-2.6-.2s-21.4-1.9-25.8-25.6v-5.7c-.2 6.1-3 26.8-25.7 31.3H95.4s0-70.9.1-70.9l27.1 2v41.5h97.6a1 1 0 00-.4-11.4c-81.5-4-79.7-7.6-86-13.6-2.8-2.6-6.8-7.2-8.6-16.3 0 0 90.5 7.2 100.6 8.2 17 1.6 24.9 19.9 25.6 25.8V31m-181.3 3-18.6 74H.9l48-75.4M370.6 1v27.9h-27.8V1zm-91.5 0v27.9h-27.9V1M500 .9v28H370.9s1.4-11.6 6.9-16.7c4.1-4.3 9.8-10.5 22.4-11.3M246.4.9v28H50.1S61.4 10.1 64.2 6.5c2.7-3.8 6.2-5.4 10-5.4h49.6v25.5s2.5-9.8 6.9-14.4c4.2-4.3 9.7-10.5 22.4-11.3"/>
</svg>