<svg xmlns="http://www.w3.org/2000/svg" fill="#fff" viewBox="-15 -10 102 43">
    <path d="m70.3 13.9v6.7H74v-6.7a1 1 0 00-14 0v6.7h3.7v-6.7a1 1 0 016.6 0"/>
    <path d="M48 13.8a1 1 0 016.8 0 1 1 0 01-6.8 0m-3.6.1a1 1 0 0014 0 1 1 0 00-14 0"/>
    <path d="m35.8 11.4c.9.6 3.7 1 6 2.2 2 1.1 2.1 3.7.9 5.3-3.6 3.9-9.5 1-11-.1l1.8-2.4c1.5 1 3.4 1.5 5.3 1.3 1.1-.2 1.5-1 .6-1.5s-4-.9-5.7-2c-1.6-1-2.2-3-1.4-4.7 2.8-4.6 9.1-2 10.5-1L41 10.9c-1.4-.7-3.1-1-4.7-.7-.9.2-1 .8-.5 1.1"/>
    <path d="m18.5 23.4c1.1.7 2.3 1.2 3.5 1.3 4 .1 4.3-4.1 4.3-5.1-.9.8-2.1 1.3-3.3 1.3-3.8 0-6.9-3-7-6.8v-7h3.7V14a1 1 0 006.6 0V7.1H30V14c0 6.1.3 12.3-5.6 13.8-2.7.6-5.6-.1-7.8-1.9l1.9-2.5"/>
    <path d="M14.023.006H10.4V6.8H7C3.1 6.8 0 9.9 0 13.8A1 1 0 0014 13.8M10.4 13.9C10.4 15.7 8.9 17.2 7 17.2A1 1 0 017 10.5H10.385L10.4 13.9"/>
</svg>