<svg xmlns="http://www.w3.org/2000/svg" viewBox="-8 -8 47 46">
    <circle opacity="0.852" cx="16" cy="16" r="14" fill="url(#a)"/>
    <path d="M6.8 26.5c-.1 0-.1 0-.1 0-.3-.3-.5-1.1.1-2.7.8-2 4.9-7.2 9.2-10.5V6.2c-1.7-1-5.7-2.8-7.8-1.7-.7.4-1.6 1.2-1.9 1.6.4-.1 1.5 0 3 1.1 1.5 1.2 2.6 2.2 2.9 2.6-1.2 1.4-4.1 5.3-6 9.2-1.3 2.7-1.6 4.7-1.1 5.8.6.8 1.2 1.4 1.6 1.7 0 0 0 0 .1 0" fill="url(#b)"/>
    <path d="M6.8 26.5c-.1 0-.1 0-.1 0-.3-.3-.5-1.1.1-2.7.8-2 3.6-5.7 7.7-9.3-1.6-3-2.3-4.7-2.3-4.7s-3.8 4.7-6 9.2c-1.3 2.7-1.6 4.7-1.1 5.8.6.8 1.2 1.4 1.6 1.7 0 0 0 0 .1 0" fill="url(#c)"/>
    <path d="m25.3 26.5s0 0 0 0c.4-.3 1-.9 1.6-1.7.5-1.1.2-3.1-1.1-5.8-1.8-3.9-4.8-7.8-6-9.2.3-.4 1.4-1.4 2.9-2.6 1.5-1.1 2.7-1.2 3-1.1-.3-.4-1.1-1.2-1.8-1.6-2.2-1.1-6.2.7-7.9 1.7v7.1c4.4 3.3 8.4 8.5 9.2 10.5.6 1.6.4 2.4.1 2.7 0 0 0 0 0 0" fill="url(#d)"/>
    <path d="m25.3 26.5s0 0 0 0c.4-.3 1-.9 1.6-1.7.5-1.1.2-3.1-1.1-5.8-2.1-4.5-6-9.2-6-9.2s-.7 1.7-2.3 4.7c4.1 3.6 6.9 7.3 7.7 9.3.6 1.6.4 2.4.1 2.7 0 0 0 0 0 0" fill="url(#e)"/>
    <defs>
        <radialGradient id="a" cx="0" cy="0" r="1" gradientUnits="userSpaceOnUse" gradientTransform="translate(16 14.5) rotate(90.0548) scale(15.5)">
            <stop stop-color="#FAFAFA"/>
            <stop offset="0.499976" stop-color="#EFEFEF"/>
            <stop offset="0.828794" stop-color="#C0BEC0"/>
            <stop offset="1" stop-color="#879288"/>
        </radialGradient>
        <linearGradient id="b" x1="12.9925" y1="4.72589" x2="13.2296" y2="12.7852" gradientUnits="userSpaceOnUse">
            <stop stop-color="#008B00"/>
            <stop offset="1" stop-color="#6CC329"/>
        </linearGradient>
        <linearGradient id="c" x1="10.1481" y1="12.6667" x2="12.874" y2="16.4" gradientUnits="userSpaceOnUse">
            <stop stop-color="#008C00"/>
            <stop offset="1" stop-color="#48BF21"/>
        </linearGradient>
        <linearGradient id="d" x1="19.0368" y1="4.72589" x2="18.7997" y2="12.7852" gradientUnits="userSpaceOnUse">
            <stop stop-color="#008B00"/>
            <stop offset="1" stop-color="#6CC329"/>
        </linearGradient>
        <linearGradient id="e" x1="21.8812" y1="12.6667" x2="19.1553" y2="16.4" gradientUnits="userSpaceOnUse">
            <stop stop-color="#008C00"/>
            <stop offset="1" stop-color="#48BF21"/>
        </linearGradient>
    </defs>
</svg>