<svg xmlns="http://www.w3.org/2000/svg" viewBox="10 10 460 460">
    <path fill="#08c" d="m227.1 186.6c7.4 4.9 14.9 9.6 21.8 14.9-15.6 9.8-31 20-46.6 29.9 2.4 1.8 5.1 3.3 7.4 5.1 15.8-10 31.5-19.9 47.1-29.9 7 4.3 14 8.8 20.4 13.7-15.7 9.9-30.8 20.3-46.4 30.3 2.4 1.9 5.2 3.3 7.7 4.9 16.1-9.8 31.7-20 47.5-30.1v-33h34.8v65.7c9.8.5 20.7 0 30.9.2v30.8H286v-31.3c-19.2 11.8-39 25-58.4 37.4-20.2-13.1-39.7-27-59.8-40.1-5.9 18.5-19.8 32.4-42.7 34-14.3 1.1-30.6-.7-47.1 0v-96.7c20.6 1.4 43.3-2.7 59.6 2.4 14.5 4.4 24.7 16 29.5 30.3 20.1-12.6 40-25.6 60-38.5zm-115.9 36.9v34.8c8.3 0 14.6.5 19.5-3.2 7.2-5.7 8.7-19.5 2.3-26.9-4.3-5-11.6-6-21.6-5.4-.3.1-.2.4-.2.7zm249.5-31.1h34.8v65.9h30.6v30.8h-65.6v-96c0-.3 0-.6.2-.7z"/>
</svg>