<svg xmlns="http://www.w3.org/2000/svg" viewBox="-10 -25 107 140">
    <path fill="#ccc" d="m27.9 67.7-5.5-2.2c1 2 2.7 3.7 4.9 4.6 4.8 2 10.3-.3 12.3-5.1.9-2.3.9-4.8 0-7.2-1-2.3-2.8-4.1-5.1-5.1-2.3-.9-4.8-.9-6.9-.1l5.6 2.4c3.5 1.4 5.2 5.5 3.7 9-1.4 3.5-5.5 5.2-9 3.7m30.9-23.1a1 1 0 000-22.3 1 1 0 000 22.3m-8.3-11.2a1 1 0 0116.7 0 1 1 0 01-16.7 0M44.2.6C21 .6 2 18.5.2 41.3l23.7 9.8c2-1.4 4.4-2.2 7-2.2.2 0 .5 0 .7 0l10.5-15.3c0-.1 0-.1 0-.2 0-9.2 7.5-16.7 16.7-16.7s16.7 7.5 16.7 16.7c0 9.2-7.5 16.7-16.7 16.7-.1 0-.3 0-.4 0l-15 10.7c0 .2 0 .4 0 .6 0 6.9-5.6 12.5-12.5 12.5-6.1 0-11.1-4.3-12.3-10.1L1.7 56.9C7 75.5 24 89.1 44.3 89.1c24.4 0 44.2-19.8 44.2-44.2C88.5 20.4 68.7.6 44.2.6"/>
</svg>