<svg xmlns="http://www.w3.org/2000/svg" viewBox="-50 0 500 100">
    <path fill="#e12" d="m53.1 100C21.3 100 0 77.4 0 50.1 0 22.7 21.3-.1 53.1 0H352.9C384.7-.1 406 22.7 406 50.1c0 27.3-21.3 49.9-53.1 49.9H53.1"/>
    <path fill="#fff" d="m53.2 12.3C28 12.3 12.6 29.2 12.6 50c0 20.9 15.3 37.8 40.6 37.7H352.8c25.3.1 40.6-16.8 40.6-37.7 0-20.8-15.4-37.7-40.6-37.7H53.2"/>
    <path fill="#e12" d="m145.2 40.7c5.3-.1 16 3.3 16 15.7 0 2.2 0 17 0 17H147.1V52.9c0-2.7-2.6-5.8-6.5-5.8-3.8 0-6.7 3.1-6.7 5.8 0 1.3 0 20.5 0 20.5h-14V42.1h14s0 2.5 0 3.3c2.7-2.6 6.6-4.6 11.3-4.7m-47.3 1.4h14.2v31.4H97.9V42.1m0-15.7h14.2V36H97.9v-9.6M346 40c-11.4 0-20.7 7.9-20.7 17.6 0 9.7 9.3 17.6 20.7 17.6s20.7-7.9 20.7-17.6c0-9.7-9.3-17.6-20.7-17.6m5.7 17.5s0 4.8 0 6.7c0 5-3 7-5.8 7-2.9 0-5.8-2-5.8-7 0-1.9 0-6.8 0-6.8s0-4.6 0-6.5c0-5 3-7 5.8-7 2.8 0 5.8 2 5.8 7 0 1.9 0 5.4 0 6.7v-.1m-44.9.1V52c0-4.8-3.3-6-5.5-6-2.3 0-5.6 1.2-5.6 6v5.6 5.6c0 4.8 3.3 6.1 5.6 6.1 2.2 0 5.5-1.3 5.5-6.1V57.6m-.1-31.2h14v47h-14s0-1.5 0-1.8c-5.4 3.4-11.5 3.4-16.3 1.2-1.3-.6-9.7-4.6-9.7-15.5 0-8.3 7.8-17.3 18-16.4 3.4.3 5.8 1.5 8 2.8V26.4m-46.4 14.3c5.2-.1 16 3.3 15.9 15.7 0 2.2 0 17 0 17H262.1V52.9c0-2.7-2.6-5.8-6.4-5.8-3.9 0-6.7 3.1-6.7 5.8 0 1.3 0 20.5 0 20.5H234.9V42.1H249s0 2.5 0 3.3c2.7-2.6 6.6-4.6 11.3-4.7m-44.6 21.8s0 .1 0 1.9c0 5.7-3.7 7-5.8 7s-6-1.3-6-7c0-1.7.1-6.5.1-6.5s26.6.1 26.6 0c0-9.7-9.3-17.7-20.9-17.7-11.5 0-20.8 7.8-20.8 17.6 0 9.7 9.3 17.5 20.8 17.5 9.6 0 17.7-5.4 20.1-12.8H215.7M204 53.1c-.1-2.8 0-4.6.9-6.2 1.1-1.9 3.1-2.8 5-2.8 1.8 0 3.8.9 4.9 2.8.9 1.6 1 3.4 1 6.2H204m-35.1-21.9h14.2v6.4h7.7v4.6h-7.7v31.3h-14.2V42.2h-7.7v-4.6h7.7v-6.4M40.3 26.4H55l20.3 32.8V26.4H89.8V73.5H75.3L54.9 40.6V73.5H40.3V26.4"/>
</svg>