<svg xmlns="http://www.w3.org/2000/svg" viewBox="-100 -415 1263 1063">
    <path fill="#38c" d="m996 138.1c4.8-15.7 4.8-24.9.2-30.9-3.5-4.2-8.5-6.2-16.2-6.2-17 0-26.4 9.6-34 33.9-4.9 15.8-4.9 25.1-.3 31 3.3 4 8.6 6.1 16.2 6.1 16.7 0 26.5-9.5 34.1-33.9m66.5-35.1c6.7 8.4 8.1 18.9 4.2 31.9-11.1 35.7-52.8 56.1-114.5 56.1-36.9 0-62-7.1-73.1-20.9-6.6-8.3-7.8-19.1-3.9-32 11.1-35.7 52.8-56.2 114.5-56.2 36.6 0 62 7.3 72.8 21.1M832.2 85.3h65.4c-3.9 5.3-75.1 100.9-76.3 102.5H720.9c-.5-3-12.4-98.8-12.9-102.5h61.5c.5 3 9 71.9 9 71.9s52.7-70.5 53.7-71.9m-203 52.8c4.9-15.7 5.1-24.9.3-30.9-3.3-4.2-8.6-6.2-15.9-6.2-17.1 0-26.7 9.6-34.1 33.9-5.1 15.8-5.1 25.1-.2 31 3.2 4 8.5 6.1 15.8 6.1 17.1 0 26.8-9.5 34.1-33.9M696 103c6.7 8.4 8.1 18.9 4 31.9-11.1 35.7-52.8 56.1-114.3 56.1-36.8 0-61.9-7.1-73-20.9-6.7-8.3-8.1-19.1-4.2-32 11.3-35.7 53-56.2 114.5-56.2 36.9 0 62 7.3 73 21.1m-192.5-5c2.5 3.2 3.9 6.4 3.2 11.1L481.1 188h-67.7l24-73.7c.9-3.2-.3-5.9-2.1-8-3.2-3.9-10.1-6.5-33.9-4.8 0 0-28 85.4-28.5 86.5h-67.7c.6-1.8 31.7-96.9 32.2-97.8 23.5-4.2 54.6-8.1 86.9-8.1 43.7 0 70.4 5.3 79.2 15.9m-247.2 21.7c1.4-6.5-.7-11.3-3-14.1-2.5-3.2-8.1-7.4-19.6-7.4-16.3 0-28.5 7.9-32.7 21l-8 30.2 63.3-29.7m56.9-.3c0 4.9-1.1 9-2.1 10.8L190.9 157s-1.2 5.7 3.2 8.7c5.8 4.2 12 5.3 22.6 5.8 26 1.1 61.3-14.1 71.2-18.4l-12.2 28.3c-4.4 1.6-28.8 9.4-76.7 9.7-18.2.2-50.7-2.1-64.1-18.9-6.6-8.3-7.8-20.1-3.2-34.8 10.8-35.2 51.4-55.5 110.8-55.5 33.2 0 54.8 6.2 64.7 18.4 3.9 5.1 6 11.5 6 19.1m-230.6-84h67.1c-1.4 4.3-46.5 149.9-47.3 152.4h-67C36.8 183.5 82 37.9 82.6 35.4"/>
</svg>